# AI-DNA Gen-0 Continuous 3D Point Cloud
v 0.0220 0.2800 -0.9161
v 0.3854 -0.2657 -0.5554
v -1.4259 -1.5268 0.7976
v 1.3641 -0.4942 1.4790
v 0.5481 0.2054 -0.0302
v 0.0394 -1.1163 -0.7201
v -0.5812 0.9794 1.5577
v -0.3605 -1.5860 0.3566
v 1.0282 0.8622 0.6984
v -2.0056 -0.5221 2.2327
v -0.1334 1.2393 0.2981
v -0.5544 -0.0154 0.3723
v 0.8755 2.0797 -0.1773
v -1.2879 1.1263 -0.5651
v 0.8283 -0.0277 1.7892
v -0.1372 1.2638 0.6633
v -1.1748 2.4494 -0.2168
v 0.3631 -1.1703 0.9360
v 1.6192 1.0237 1.2749
v -1.3242 -1.2032 -0.2185
v -0.9465 1.3662 1.0848
v -2.1713 -0.1183 -0.5536
v -2.7174 -0.4324 0.5925
v 1.1885 -0.8355 -1.3889
v -0.4248 -0.2597 -0.4641
v 0.0821 -1.5939 0.0808
v -1.6291 -0.4324 -1.3883
v -0.4735 1.0225 -1.1679
v 0.5171 -0.1192 0.2767
v 0.7093 0.2543 1.7635
v 0.3460 1.2918 -1.1920
v -0.5477 0.3449 0.6854
